<svg id="Layer_1" enable-background="new 0 0 512 512" height="512" viewBox="0 0 512 512" width="512" xmlns="http://www.w3.org/2000/svg"><g><path d="m376 40h-80c-14.791 0-28.545 4.489-39.994 12.168-11.449-7.679-25.215-12.168-40.006-12.168h-80c-22.056 0-40 17.944-40 40s17.944 40 40 40h48c4.418 0 8-3.582 8-8s-3.582-8-8-8c-13.233 0-24-10.766-24-24 0-11.043 7.54-20.372 17.712-23.157 26.283 4.597 46.288 27.578 46.288 55.157 0 2.122.843 4.157 2.343 5.657 1.501 1.5 3.535 2.343 5.657 2.343h48c4.418 0 8-3.582 8-8 0-27.579 20.045-50.55 46.329-55.147 10.171 2.785 17.671 12.104 17.671 23.147 0 13.234-10.767 24-24 24-4.418 0-8 3.582-8 8s3.582 8 8 8h48c22.056 0 40-17.944 40-40s-17.944-40-40-40z" fill="#32283c"/><g><path d="m464 120h-416c-8.837 0-16 7.163-16 16v32c0 8.837 7.163 16 16 16h416c8.837 0 16-7.163 16-16v-32c0-8.837-7.163-16-16-16z" fill="#cd3232"/></g><g><path d="m432 472h-352c-8.837 0-16-7.163-16-16v-272h384v272c0 8.837-7.163 16-16 16z" fill="#cd3232"/></g><g><path d="m240 472h-160c-8.837 0-16-7.163-16-16v-272h192v272c0 8.837-7.163 16-16 16z" fill="#ff4646"/></g><g><path d="m256 120h-208c-8.837 0-16 7.163-16 16v32c0 8.837 7.163 16 16 16h208c8.837 0 16-7.163 16-16v-32c0-8.837-7.163-16-16-16z" fill="#ff4646"/></g><g><path d="m64 184h192v32h-192z" fill="#cd3232"/></g><g><path d="m184 456c0 8.837 7.163 16 16 16h-48c-8.837 0-16-7.163-16-16v-272h48z" fill="#463c4b"/></g><g><path d="m376 456c0 8.837-7.163 16-16 16h-48c8.837 0 16-7.163 16-16v-272h48z" fill="#32283c"/></g><g><path d="m136 184h48v32h-48z" fill="#32283c"/></g><g><path d="m160 168c0 8.837 7.163 16 16 16h-48c-8.837 0-16-7.163-16-16v-32c0-8.837 7.163-16 16-16h48c-8.837 0-16 7.163-16 16z" fill="#463c4b"/></g><g><path d="m352 168c0 8.837-7.163 16-16 16h48c8.837 0 16-7.163 16-16v-32c0-8.837-7.163-16-16-16h-48c8.837 0 16 7.163 16 16z" fill="#32283c"/></g><path d="m328 40h-32c-27.842 0-52.026 15.896-64 39.079-11.974-23.183-36.158-39.079-64-39.079h-32c-22.056 0-40 17.944-40 40s17.944 40 40 40h192c22.056 0 40-17.944 40-40s-17.944-40-40-40zm-192 64c-13.233 0-24-10.766-24-24s10.767-24 24-24h32c28.163 0 51.536 20.898 55.431 48zm192 0h-87.431c3.895-27.102 27.268-48 55.431-48h32c13.233 0 24 10.766 24 24s-10.767 24-24 24z" fill="#463c4b"/></g></svg>